<?xml version="1.0" encoding="UTF-8"?><svg xmlns="http://www.w3.org/2000/svg" xmlns:xlink="http://www.w3.org/1999/xlink" width="75" zoomAndPan="magnify" viewBox="0 0 75 74.999997" height="74.999997" preserveAspectRatio="xMidYMid meet" version="1.0"><path fill="rgb(79.60968%, 82.348633%, 85.099792%)" d="M 1.582031 74.929688 C 1.210938 74.929688 0.84375 74.789062 0.566406 74.507812 C 0.00390625 73.945312 0.00390625 73.035156 0.566406 72.476562 L 72.402344 0.636719 C 72.964844 0.0742188 73.875 0.0742188 74.433594 0.636719 C 74.996094 1.199219 74.996094 2.105469 74.433594 2.667969 L 2.597656 74.507812 C 2.316406 74.789062 1.949219 74.929688 1.582031 74.929688 " fill-opacity="1" fill-rule="nonzero"/><path fill="rgb(79.60968%, 82.348633%, 85.099792%)" d="M 73.417969 74.929688 C 73.050781 74.929688 72.683594 74.789062 72.402344 74.507812 L 0.566406 2.667969 C 0.00390625 2.105469 0.00390625 1.199219 0.566406 0.636719 C 1.125 0.0742188 2.035156 0.0742188 2.597656 0.636719 L 74.433594 72.476562 C 74.996094 73.035156 74.996094 73.945312 74.433594 74.507812 C 74.15625 74.789062 73.785156 74.929688 73.417969 74.929688 " fill-opacity="1" fill-rule="nonzero"/></svg>