<?xml version="1.0" encoding="UTF-8"?><svg xmlns="http://www.w3.org/2000/svg" xmlns:xlink="http://www.w3.org/1999/xlink" width="75" zoomAndPan="magnify" viewBox="0 0 75 74.999997" height="74.999997" preserveAspectRatio="xMidYMid meet" version="1.0"><defs><clipPath id="clip-0"><path d="M 9.375 0 L 65.625 0 L 65.625 75 L 9.375 75 Z M 9.375 0 " clip-rule="nonzero"/></clipPath></defs><g clip-path="url(#clip-0)"><path fill="rgb(19.999695%, 79.998779%, 58.428955%)" d="M 64.480469 24.234375 L 41.238281 0.988281 C 40.332031 0.0820312 38.859375 0.0820312 37.949219 0.988281 L 14.707031 24.234375 C 14.039062 24.902344 13.835938 25.898438 14.199219 26.765625 C 14.558594 27.636719 15.410156 28.203125 16.347656 28.203125 L 27.96875 28.203125 L 27.96875 45.542969 C 27.96875 50.917969 26.34375 56.101562 23.269531 60.535156 C 20.203125 64.960938 15.921875 68.296875 10.882812 70.191406 C 9.832031 70.585938 9.210938 71.671875 9.414062 72.78125 C 9.613281 73.886719 10.574219 74.691406 11.699219 74.691406 L 24.902344 74.691406 C 40.882812 74.691406 51.214844 62.539062 51.214844 43.730469 L 51.214844 28.203125 L 62.835938 28.203125 C 63.773438 28.203125 64.625 27.636719 64.984375 26.765625 C 65.339844 25.898438 65.140625 24.902344 64.480469 24.234375 Z M 64.480469 24.234375 " fill-opacity="1" fill-rule="nonzero"/></g></svg>