<?xml version="1.0" encoding="UTF-8"?><svg xmlns="http://www.w3.org/2000/svg" xmlns:xlink="http://www.w3.org/1999/xlink" width="75" zoomAndPan="magnify" viewBox="0 0 75 74.999997" height="74.999997" preserveAspectRatio="xMidYMid meet" version="1.0"><defs><clipPath id="clip-0"><path d="M 9.375 0 L 65.625 0 L 65.625 75 L 9.375 75 Z M 9.375 0 " clip-rule="nonzero"/></clipPath></defs><g clip-path="url(#clip-0)"><path fill="rgb(89.7995%, 18.03894%, 30.198669%)" d="M 64.480469 50.765625 L 41.238281 74.011719 C 40.332031 74.917969 38.859375 74.917969 37.949219 74.011719 L 14.707031 50.765625 C 14.039062 50.097656 13.835938 49.101562 14.199219 48.234375 C 14.558594 47.363281 15.410156 46.796875 16.347656 46.796875 L 27.96875 46.796875 L 27.96875 29.457031 C 27.96875 24.082031 26.34375 18.898438 23.269531 14.464844 C 20.203125 10.039062 15.921875 6.703125 10.882812 4.808594 C 9.832031 4.414062 9.210938 3.328125 9.414062 2.21875 C 9.613281 1.113281 10.574219 0.308594 11.699219 0.308594 L 24.902344 0.308594 C 40.882812 0.308594 51.214844 12.460938 51.214844 31.269531 L 51.214844 46.796875 L 62.835938 46.796875 C 63.773438 46.796875 64.625 47.363281 64.984375 48.234375 C 65.339844 49.101562 65.140625 50.097656 64.480469 50.765625 Z M 64.480469 50.765625 " fill-opacity="1" fill-rule="nonzero"/></g></svg>