<?xml version="1.0" encoding="UTF-8"?><svg xmlns="http://www.w3.org/2000/svg" xmlns:xlink="http://www.w3.org/1999/xlink" width="75" zoomAndPan="magnify" viewBox="0 0 75 74.999997" height="74.999997" preserveAspectRatio="xMidYMid meet" version="1.0"><path fill="rgb(100%, 100%, 100%)" d="M 50.402344 45.722656 C 50.402344 47.820312 50.003906 49.582031 49.207031 51.003906 C 48.414062 52.429688 47.335938 53.585938 45.96875 54.464844 C 44.605469 55.347656 43.019531 55.984375 41.210938 56.367188 C 40.972656 56.417969 40.730469 56.464844 40.488281 56.507812 L 40.488281 62.867188 L 34.511719 62.867188 L 34.511719 56.929688 C 32.800781 56.882812 31.160156 56.714844 29.59375 56.417969 C 27.730469 56.070312 26.117188 55.546875 24.753906 54.847656 L 24.753906 46.453125 C 26.277344 47.730469 27.929688 48.6875 29.710938 49.328125 C 31.296875 49.894531 32.898438 50.210938 34.511719 50.273438 C 34.710938 50.28125 34.914062 50.285156 35.113281 50.285156 C 36.179688 50.285156 37.109375 50.1875 37.90625 49.996094 C 38.703125 49.804688 39.367188 49.535156 39.898438 49.195312 C 40.117188 49.054688 40.316406 48.90625 40.488281 48.742188 C 40.738281 48.511719 40.9375 48.261719 41.09375 47.988281 C 41.355469 47.527344 41.488281 47.023438 41.488281 46.480469 C 41.488281 45.746094 41.277344 45.089844 40.855469 44.515625 C 40.742188 44.363281 40.621094 44.210938 40.488281 44.066406 C 40.121094 43.65625 39.671875 43.273438 39.136719 42.914062 C 38.414062 42.425781 37.550781 41.953125 36.554688 41.5 C 35.910156 41.203125 35.226562 40.902344 34.511719 40.601562 C 34.128906 40.4375 33.734375 40.273438 33.332031 40.109375 C 30.394531 38.886719 28.203125 37.390625 26.761719 35.625 C 25.320312 33.859375 24.597656 31.726562 24.597656 29.226562 C 24.597656 27.269531 24.992188 25.585938 25.777344 24.179688 C 26.566406 22.773438 27.636719 21.613281 28.992188 20.703125 C 30.34375 19.796875 31.914062 19.125 33.699219 18.699219 C 33.96875 18.632812 34.238281 18.574219 34.511719 18.519531 L 34.511719 12.132812 L 40.488281 12.132812 L 40.488281 18.070312 C 41.992188 18.105469 43.351562 18.21875 44.566406 18.410156 C 46.078125 18.644531 47.472656 19.007812 48.75 19.496094 L 48.75 27.339844 C 48.121094 26.902344 47.433594 26.515625 46.691406 26.183594 C 45.949219 25.851562 45.183594 25.578125 44.394531 25.359375 C 43.609375 25.140625 42.828125 24.980469 42.050781 24.875 C 41.511719 24.800781 40.988281 24.753906 40.488281 24.730469 C 40.265625 24.71875 40.046875 24.714844 39.832031 24.714844 C 38.871094 24.714844 38 24.808594 37.210938 24.992188 C 36.425781 25.175781 35.761719 25.433594 35.21875 25.765625 C 34.953125 25.925781 34.71875 26.105469 34.511719 26.300781 C 34.296875 26.503906 34.113281 26.722656 33.960938 26.957031 C 33.660156 27.421875 33.511719 27.941406 33.511719 28.519531 C 33.511719 29.148438 33.679688 29.710938 34.011719 30.210938 C 34.152344 30.421875 34.320312 30.628906 34.511719 30.832031 C 34.769531 31.105469 35.074219 31.371094 35.425781 31.625 C 36.039062 32.070312 36.78125 32.507812 37.65625 32.9375 C 38.496094 33.347656 39.4375 33.773438 40.488281 34.207031 C 40.53125 34.226562 40.578125 34.242188 40.621094 34.261719 C 42.125 34.890625 43.472656 35.558594 44.671875 36.265625 C 45.871094 36.976562 46.898438 37.773438 47.753906 38.667969 C 48.609375 39.558594 49.265625 40.578125 49.71875 41.722656 C 50.175781 42.867188 50.402344 44.199219 50.402344 45.722656 " fill-opacity="1" fill-rule="nonzero"/><path fill="rgb(100%, 100%, 100%)" d="M 37.5 69.644531 C 19.777344 69.644531 5.355469 55.222656 5.355469 37.5 C 5.355469 19.777344 19.777344 5.355469 37.5 5.355469 C 55.222656 5.355469 69.644531 19.777344 69.644531 37.5 C 69.644531 55.222656 55.222656 69.644531 37.5 69.644531 Z M 64.015625 10.984375 C 56.933594 3.902344 47.515625 0 37.5 0 C 27.484375 0 18.066406 3.902344 10.984375 10.984375 C 3.902344 18.066406 0 27.484375 0 37.5 C 0 47.515625 3.902344 56.933594 10.984375 64.015625 C 18.066406 71.097656 27.484375 75 37.5 75 C 47.515625 75 56.933594 71.097656 64.015625 64.015625 C 71.097656 56.933594 75 47.515625 75 37.5 C 75 27.484375 71.097656 18.066406 64.015625 10.984375 " fill-opacity="1" fill-rule="nonzero"/></svg>